<svg width="104" height="105" viewBox="0 0 104 105" fill="none" xmlns="http://www.w3.org/2000/svg">
<circle cx="52" cy="52.52" r="51" stroke="url(#paint0_linear_149)" stroke-width="2"/>
<g clip-path="url(#clip0_149)">
<path d="M44.8737 50.2009L41.8606 51.4073C40.831 51.8162 39.665 51.313 39.2561 50.2834C39.0464 49.7555 39.0705 49.1634 39.3222 48.6543L39.9863 47.3261C40.3586 46.5816 40.2125 45.6825 39.6238 45.094L35.0002 40.4705L36.2501 39.2206C36.6275 38.8431 36.6275 38.2312 36.2501 37.8537L33.0669 34.6706L33.3501 34.3873C33.7202 34.0175 33.7288 33.4202 33.3694 33.0398L24.6694 23.8246C24.3028 23.4363 23.691 23.4189 23.3029 23.7856C23.1097 23.968 23.0001 24.2219 23 24.4876V37.0543C23 37.3389 23.1255 37.6091 23.3432 37.7928L26.2432 40.2443C26.6269 40.5682 27.195 40.5443 27.5501 40.1892L27.8333 39.903L31.0166 43.0863C31.394 43.4636 32.0059 43.4636 32.3834 43.0863L33.6333 41.8364L38.2569 46.4599L37.5967 47.7843C36.6249 49.7289 37.4137 52.0932 39.3584 53.0648C40.3646 53.5676 41.5376 53.6158 42.5818 53.1976L45.5968 51.9922L44.8737 50.2009ZM27.1499 37.8556L26.8116 38.194L24.9333 36.6057V26.9197L31.3191 33.6864L31.0166 33.989L27.1499 37.8556ZM31.7 41.036L29.2002 38.5362L31.7 36.0364L34.1998 38.5391L31.7 41.036Z" fill="url(#paint1_linear_149)"/>
<path d="M80.4038 51.6265C80.0425 51.4768 79.6266 51.5597 79.3501 51.8362L65.8168 65.3696C65.4394 65.7471 65.4394 66.359 65.8168 66.7364L66.5834 67.503L62.7902 71.2962C61.2898 70.3763 59.56 69.8991 57.8002 69.9197C53.5363 69.9197 50.0669 72.521 50.0669 75.7197C50.0669 78.9184 53.5363 81.5197 57.8002 81.5197C62.0642 81.5197 65.5336 78.9184 65.5336 75.7197C65.5143 74.5442 65.0645 73.4167 64.2692 72.5509L67.9502 68.8699L68.7168 69.6364C69.0943 70.0138 69.7062 70.0138 70.0837 69.6364L80.717 59.0031C80.8982 58.8219 81.0002 58.5761 81.0002 58.3197V52.5197C81.0003 52.1288 80.765 51.7763 80.4038 51.6265ZM57.8002 79.5863C54.6566 79.5863 52.0002 77.8154 52.0002 75.7197C52.0002 73.6239 54.6566 71.853 57.8002 71.853C60.9438 71.853 63.6002 73.6239 63.6002 75.7197C63.6002 77.8154 60.9438 79.5863 57.8002 79.5863ZM79.0669 57.9195L69.4002 67.5861L67.8671 66.053L79.0669 54.8532V57.9195Z" fill="url(#paint2_linear_149)"/>
<path d="M56.3297 56.1872C55.9304 53.7961 53.6683 52.1811 51.277 52.5805C49.4279 52.8892 47.979 54.3381 47.6703 56.1872L44.75 73.709C44.5311 75.0197 43.2913 75.9048 41.9806 75.6861C40.9414 75.5126 40.1359 74.6833 39.993 73.6394L37.4913 55.2892C37.4734 55.1519 37.4262 55.02 37.353 54.9025L36.8156 54.0422C35.1785 51.4249 33.9984 48.5484 33.3259 45.5355L31.438 45.957C32.1594 49.1854 33.4249 52.2676 35.18 55.0717L35.6072 55.7561L38.0819 73.9004C38.4051 76.2746 40.5917 77.9372 42.9659 77.614C44.8501 77.3575 46.3477 75.9038 46.6601 74.028L49.5804 56.5062C49.7743 55.3211 50.7991 54.4515 52 54.453C53.2024 54.4496 54.2292 55.3196 54.4234 56.5062L56.3635 68.1459L58.2698 67.8269L56.3297 56.1872Z" fill="url(#paint3_linear_149)"/>
<path d="M61.071 27.3866C59.4197 27.3866 57.7857 27.722 56.2679 28.3723C53.5413 29.5343 50.4589 29.5343 47.7322 28.3723C42.9427 26.3196 37.3779 27.5369 33.8828 31.4019L35.3173 32.703C37.2636 30.5519 40.028 29.3232 42.9289 29.3197C44.3185 29.3181 45.6938 29.6004 46.9705 30.1491C50.1835 31.5198 53.8167 31.5198 57.0297 30.1491C62.2393 27.9169 68.2719 30.3306 70.504 35.5402C71.0513 36.8174 71.3334 38.1923 71.3334 39.5818C71.3351 44.6973 69.8973 49.7101 67.1845 54.047L66.647 54.9073C66.5738 55.0248 66.5267 55.1567 66.5088 55.294L65.7181 61.094L67.633 61.355L68.3967 55.7609L68.824 55.0765C71.7298 50.4309 73.2693 45.0614 73.2668 39.5818C73.2666 32.8464 67.8064 27.3865 61.071 27.3866Z" fill="url(#paint4_linear_149)"/>
</g>
<defs>
<linearGradient id="paint0_linear_149" x1="79.7931" y1="96.4511" x2="20.6207" y2="10.8304" gradientUnits="userSpaceOnUse">
<stop stop-color="#C0A46E"/>
<stop offset="1" stop-color="#F9DCA4"/>
</linearGradient>
<linearGradient id="paint1_linear_149" x1="26.8269" y1="18.7828" x2="51.1472" y2="29.3834" gradientUnits="userSpaceOnUse">
<stop stop-color="#F9DCA4"/>
<stop offset="1" stop-color="#C0A46E"/>
</linearGradient>
<linearGradient id="paint2_linear_149" x1="55.3056" y1="46.8127" x2="84.5261" y2="64.243" gradientUnits="userSpaceOnUse">
<stop stop-color="#F9DCA4"/>
<stop offset="1" stop-color="#C0A46E"/>
</linearGradient>
<linearGradient id="paint3_linear_149" x1="35.9821" y1="40.455" x2="63.8518" y2="53.9092" gradientUnits="userSpaceOnUse">
<stop stop-color="#F9DCA4"/>
<stop offset="1" stop-color="#C0A46E"/>
</linearGradient>
<linearGradient id="paint4_linear_149" x1="40.5527" y1="22.0125" x2="75.3664" y2="45.3372" gradientUnits="userSpaceOnUse">
<stop stop-color="#F9DCA4"/>
<stop offset="1" stop-color="#C0A46E"/>
</linearGradient>
<clipPath id="clip0_149">
<rect width="58" height="58" fill="white" transform="translate(23 23.52)"/>
</clipPath>
</defs>
</svg>
