<svg width="104" height="104" viewBox="0 0 104 104" fill="none" xmlns="http://www.w3.org/2000/svg">
<path d="M74.0922 42.6324C73.6622 41.8876 72.968 41.3548 72.1374 41.1322C71.3249 40.9144 70.4772 41.0197 69.7437 41.4268C69.6831 41.2582 69.6206 41.0913 69.555 40.9276C68.851 39.1701 67.7542 37.6845 66.3833 36.6314C65.7296 36.1292 65.0195 35.7327 64.27 35.4463C64.7 34.0218 64.8282 32.4818 64.8746 31.0355C64.8867 30.658 64.6893 30.3099 64.3594 30.127C64.0269 29.9427 63.6235 29.96 63.3068 30.1724C62.3789 30.7944 60.5042 30.9992 59.0597 30.9826L52.4362 30.9823C52.0815 30.9823 51.7941 31.2697 51.7941 31.6244C51.7941 31.9791 52.0816 32.2665 52.4362 32.2665H59.0189L59.0454 32.2668C59.9641 32.2767 62.1073 32.2151 63.5713 31.497C63.4625 33.806 63.0741 36.279 61.4285 37.8358C60.4076 38.8016 59.3055 38.8713 57.6118 38.8713H47.4283C46.5357 38.8713 45.6995 38.5208 45.0735 37.8843C44.4478 37.2481 44.1114 36.4056 44.1263 35.5123C44.1562 33.7226 45.6666 32.2666 47.4932 32.2666H49.4486C49.8032 32.2666 50.0907 31.9792 50.0907 31.6245C50.0907 31.2698 49.8032 30.9824 49.4486 30.9824H47.4932C44.9701 30.9824 42.8836 33.0049 42.8421 35.4909C42.8409 35.5626 42.8418 35.634 42.8438 35.7052C42.3148 35.957 41.8092 36.2661 41.3334 36.6316C39.9624 37.6847 38.8656 39.1703 38.1616 40.9277C37.8613 41.6775 37.6112 42.4813 37.4185 43.3168C36.7585 46.179 37.0685 48.9799 38.3968 51.8902C37.8862 52.5418 37.5806 53.3614 37.5806 54.2514C37.5806 54.4409 37.5945 54.6294 37.6222 54.8156C36.0878 55.3292 35 56.7875 35 58.4543C35 60.5695 36.7209 62.2905 38.8363 62.2905C39.7786 62.2905 40.6839 61.9383 41.3795 61.3233C41.3218 61.8864 41.2575 62.448 41.1804 63.0016C40.9214 64.8613 40.7265 67.2801 41.5241 69.495C41.9942 70.8006 43.4525 73.1262 45.3641 73.8091C46.2606 74.1293 47.1574 74.0456 47.9577 73.567C49.8486 72.4361 49.7226 69.8442 49.6305 67.9517C49.6134 67.5991 49.5972 67.2661 49.5956 66.9773C49.5895 65.8513 49.7394 64.8225 50.041 63.9198C50.5733 62.3265 51.8746 61.296 53.5219 61.1633C55.1626 61.0312 56.647 61.8353 57.396 63.2621C57.5607 63.5762 57.949 63.6971 58.263 63.5323C58.577 63.3675 58.698 62.9793 58.5332 62.6653C57.541 60.7748 55.581 59.7085 53.4188 59.8831C51.2743 60.056 49.5133 61.4468 48.823 63.5128C48.4766 64.5492 48.3046 65.7172 48.3114 66.9842C48.3131 67.3008 48.3299 67.6473 48.3478 68.0141C48.4283 69.6693 48.5285 71.7292 47.2986 72.4647C46.8254 72.7476 46.334 72.7916 45.7961 72.5997C44.3955 72.0993 43.1399 70.1917 42.7324 69.0599C42.03 67.1093 42.2138 64.8923 42.4523 63.1787C42.5057 62.7954 42.5527 62.4096 42.596 62.0233C43.0377 62.1973 43.5125 62.2905 43.9972 62.2905C46.1125 62.2905 47.8335 60.5696 47.8335 58.4543C47.8335 56.7875 46.7457 55.3292 45.2113 54.8156C45.239 54.6294 45.2529 54.4409 45.2529 54.2514C45.2529 52.1361 43.532 50.4152 41.4166 50.4152C40.6795 50.4152 39.9906 50.6246 39.4055 50.9863C38.3376 48.4681 38.1055 46.0518 38.6697 43.6054C38.8476 42.8341 39.0776 42.0938 39.3535 41.4053C40.1575 39.3983 41.4654 37.8907 43.076 37.0238C43.2938 37.6777 43.6592 38.2785 44.1574 38.7851C45.0268 39.669 46.1882 40.1558 47.4279 40.1558H57.6114C59.2009 40.1558 60.8448 40.1558 62.3107 38.7689C62.9662 38.1487 63.4536 37.427 63.8167 36.6455C65.7001 37.3631 67.2532 38.8939 68.2082 41.0419C67.3931 40.8103 66.4918 40.8977 65.7155 41.3458C64.178 42.2334 63.6492 44.2063 64.5367 45.7438C64.9204 46.4084 65.5302 46.9091 66.2409 47.1644C66.1065 47.9076 66.2352 48.686 66.6188 49.3506C67.0165 50.0395 67.6405 50.5465 68.3893 50.7949C67.7136 52.451 66.676 54.1498 65.2632 55.9294C65.2632 55.9295 65.258 55.9361 65.2579 55.9362C64.8622 56.4352 64.6747 57.0622 64.7301 57.7017C64.7642 58.0956 64.7966 58.4898 64.8291 58.8842C64.9451 60.2944 65.0651 61.7526 65.2636 63.1787C65.5021 64.8923 65.6859 67.1094 64.9835 69.0599C64.576 70.1916 63.3204 72.0993 61.9198 72.5997C61.382 72.7918 60.8905 72.7477 60.4174 72.4648C59.1875 71.7293 59.2877 69.6693 59.3682 68.014C59.3861 67.6473 59.4029 67.3008 59.4046 66.9842C59.4068 66.581 59.3906 66.1825 59.3564 65.7999C59.325 65.4467 59.013 65.1854 58.6597 65.2173C58.3065 65.2487 58.0457 65.5607 58.0771 65.914C58.1077 66.2566 58.1222 66.6143 58.1203 66.9773C58.1187 67.2661 58.1025 67.5991 58.0854 67.9516C57.9933 69.8442 57.8673 72.4361 59.7582 73.5671C60.2399 73.8551 60.7565 74.0001 61.2871 74.0001C61.638 74.0001 61.995 73.9367 62.3519 73.8091C64.2635 73.1263 65.7218 70.8006 66.1919 69.4951C66.9895 67.2801 66.7946 64.8614 66.5356 63.0016C66.3421 61.6114 66.2236 60.1715 66.109 58.779C66.0765 58.3829 66.0439 57.9867 66.0096 57.591C65.9826 57.2796 66.073 56.9754 66.2691 56.7282C67.8547 54.7311 68.9979 52.8193 69.7159 50.9459C70.1687 50.9025 70.6111 50.7636 71.0168 50.5295C72.1977 49.8479 72.8009 48.4981 72.5802 47.1978C72.694 47.1487 72.805 47.0929 72.913 47.0306C73.6578 46.6006 74.1905 45.9064 74.4132 45.0757C74.6363 44.2448 74.5221 43.3771 74.0922 42.6324V42.6324ZM38.944 55.6272C39.0446 55.4636 39.0666 55.2635 39.0042 55.0818C38.9119 54.8138 38.8651 54.5343 38.8651 54.2511C38.8651 52.844 40.0099 51.6992 41.417 51.6992C42.8242 51.6992 43.969 52.844 43.969 54.2511C43.969 54.5343 43.9222 54.8138 43.8299 55.0818C43.7674 55.2634 43.7895 55.4636 43.8901 55.6272C43.9906 55.7908 44.1592 55.9008 44.3495 55.927C45.6037 56.0997 46.5495 57.1862 46.5495 58.4541C46.5495 59.8612 45.4047 61.006 43.9976 61.006C43.1862 61.006 42.4154 60.6138 41.9356 59.9569C41.8147 59.7914 41.622 59.6935 41.417 59.6935C41.2121 59.6935 41.0194 59.7914 40.8985 59.9569C40.4187 60.6139 39.6478 61.006 38.8365 61.006C37.4294 61.006 36.2846 59.8612 36.2846 58.4541C36.2846 57.1862 37.2304 56.0997 38.4846 55.927C38.6749 55.9008 38.8435 55.7908 38.944 55.6272ZM73.1732 44.7429C72.9826 45.4542 72.3954 46.0011 71.6731 46.1416C71.4846 46.1783 71.3223 46.2974 71.2309 46.4662C71.1396 46.6352 71.1285 46.8361 71.2009 47.014C71.563 47.9031 71.208 48.9362 70.3752 49.4169C69.9275 49.6754 69.406 49.7441 68.9066 49.6101C68.4073 49.4763 67.99 49.156 67.7316 48.7083C67.424 48.1755 67.3894 47.5204 67.639 46.9562C67.7219 46.7687 67.7103 46.5529 67.6079 46.3753C67.5053 46.1978 67.3243 46.0799 67.1204 46.0579C66.5069 45.9919 65.9571 45.6343 65.6494 45.1014C65.1159 44.1772 65.4338 42.9913 66.358 42.4578C66.6593 42.2838 66.9918 42.2002 67.3214 42.2002C67.9031 42.2002 68.4758 42.4605 68.8516 42.9444C68.9695 43.0961 69.1489 43.187 69.3409 43.1925C69.7585 43.2041 70.0103 42.7537 70.3361 42.5658C71.2612 42.032 72.4504 42.3574 72.9797 43.2743C73.2383 43.7222 73.307 44.2436 73.1732 44.7429V44.7429Z" fill="url(#paint0_linear_147)" stroke="url(#paint1_linear_147)"/>
<path d="M31.7036 46.7074C30.0292 46.1294 29.0415 44.356 28.6946 43.6204C28.5168 43.2435 28.1326 43 27.7159 43C27.2992 43 26.9151 43.2435 26.7372 43.6204C26.7372 43.6204 26.7372 43.6204 26.7371 43.6205C26.3901 44.3561 25.4025 46.1294 23.7281 46.7074C23.2926 46.8578 23 47.2686 23 47.7296C23 48.1907 23.2926 48.6014 23.7281 48.7517C25.4025 49.3297 26.3903 51.103 26.7371 51.8386C26.9148 52.2156 27.2991 52.4591 27.7159 52.4591C28.1327 52.4591 28.5169 52.2156 28.6947 51.8386C29.0416 51.103 30.0292 49.3297 31.7036 48.7518C32.1392 48.6014 32.4317 48.1907 32.4317 47.7296C32.4316 47.2686 32.1391 46.8578 31.7036 46.7074V46.7074ZM27.7159 49.8831C27.2474 49.1694 26.5751 48.3509 25.6777 47.7296C26.5751 47.1082 27.2472 46.2898 27.7159 45.576C28.1844 46.2898 28.8566 47.1082 29.7539 47.7296C28.8567 48.3509 28.1844 49.1694 27.7159 49.8831Z" fill="url(#paint2_linear_147)"/>
<path d="M69.772 61.2557C72.2014 62.0943 73.618 64.6326 74.1144 65.6851C74.3058 66.0911 74.7036 66.3432 75.1527 66.3432C75.6017 66.3432 75.9995 66.091 76.1909 65.6851C76.6872 64.6326 78.104 62.0943 80.5332 61.2557C80.9951 61.0963 81.3054 60.6606 81.3054 60.1715C81.3054 59.6824 80.9951 59.2468 80.5333 59.0875C78.104 58.2489 76.6873 55.7106 76.1909 54.6581C75.9995 54.2521 75.6017 54 75.1527 54C74.7036 54 74.3058 54.2522 74.1144 54.6581C73.6182 55.7106 72.2014 58.2489 69.7721 59.0875C69.3102 59.2469 69 59.6826 69 60.1717C69 60.6608 69.3102 61.0963 69.772 61.2557V61.2557ZM75.1527 56.5616C75.8425 57.7132 76.97 59.2009 78.5909 60.1717C76.9702 61.1425 75.8426 62.6301 75.1527 63.7817C74.4628 62.6301 73.3353 61.1425 71.7146 60.1717C73.3352 59.2009 74.4627 57.7132 75.1527 56.5616V56.5616Z" fill="url(#paint3_linear_147)"/>
<path d="M36.5333 35.5328C34.104 34.6942 32.6873 32.1559 32.1909 31.1035C31.9995 30.6974 31.6017 30.4453 31.1527 30.4453C30.7036 30.4453 30.3058 30.6976 30.1144 31.1035C29.6182 32.1559 28.2014 34.6942 25.7721 35.5328C25.3102 35.6922 25 36.1279 25 36.617C25 37.1061 25.3102 37.5416 25.772 37.701C28.2014 38.5396 29.618 41.0779 30.1144 42.1304C30.3058 42.5364 30.7036 42.7885 31.1527 42.7885C31.6017 42.7885 31.9995 42.5363 32.1909 42.1304C32.6872 41.0779 34.1039 38.5396 36.5332 37.701C36.9951 37.5416 37.3053 37.106 37.3053 36.6169C37.3053 36.1278 36.9951 35.6922 36.5333 35.5328V35.5328ZM31.1527 40.2269C30.4628 39.0753 29.3353 37.5877 27.7144 36.6169C29.3352 35.646 30.4627 34.1584 31.1527 33.0068C31.8425 34.1584 32.97 35.646 34.5907 36.6169C32.9702 37.5877 31.8426 39.0753 31.1527 40.2269Z" fill="url(#paint4_linear_147)"/>
<circle cx="52" cy="52" r="51" stroke="url(#paint5_linear_147)" stroke-width="2"/>
<defs>
<linearGradient id="paint0_linear_147" x1="41.6937" y1="23.0401" x2="81.5698" y2="43.7396" gradientUnits="userSpaceOnUse">
<stop stop-color="#F9DCA4"/>
<stop offset="1" stop-color="#C0A46E"/>
</linearGradient>
<linearGradient id="paint1_linear_147" x1="44.5" y1="33.5" x2="62.5" y2="74.5" gradientUnits="userSpaceOnUse">
<stop stop-color="#E7CB93"/>
<stop offset="1" stop-color="#CCB079"/>
</linearGradient>
<linearGradient id="paint2_linear_147" x1="24.5973" y1="41.5038" x2="33.6661" y2="46.7292" gradientUnits="userSpaceOnUse">
<stop stop-color="#F9DCA4"/>
<stop offset="1" stop-color="#C0A46E"/>
</linearGradient>
<linearGradient id="paint3_linear_147" x1="71.084" y1="52.0476" x2="82.9169" y2="58.8645" gradientUnits="userSpaceOnUse">
<stop stop-color="#F9DCA4"/>
<stop offset="1" stop-color="#C0A46E"/>
</linearGradient>
<linearGradient id="paint4_linear_147" x1="27.084" y1="28.4929" x2="38.9168" y2="35.3097" gradientUnits="userSpaceOnUse">
<stop stop-color="#F9DCA4"/>
<stop offset="1" stop-color="#C0A46E"/>
</linearGradient>
<linearGradient id="paint5_linear_147" x1="79.7931" y1="95.931" x2="20.6207" y2="10.3103" gradientUnits="userSpaceOnUse">
<stop stop-color="#C0A46E"/>
<stop offset="1" stop-color="#F9DCA4"/>
</linearGradient>
</defs>
</svg>
