<svg width="104" height="104" viewBox="0 0 104 104" fill="none" xmlns="http://www.w3.org/2000/svg">
<path d="M79.3103 57.2369L70.0953 54.6035C68.7514 54.219 67.3158 54.3124 66.0331 54.8676C67.1049 51.4625 67.6501 47.9134 67.65 44.3435C67.6409 40.1201 64.3739 36.6195 60.1611 36.3189L60.031 38.2189C63.2466 38.4487 65.7407 41.1197 65.75 44.3435C65.7525 48.3343 65.0349 52.2927 63.6315 56.0285L62.9598 57.8174C62.9259 57.9088 62.9064 58.005 62.9019 58.1024L62.1172 72.2241C62.0676 73.046 61.5632 73.7714 60.81 74.1042L60.0642 54.7166L60.0728 54.6928C61.3159 51.3841 61.9519 47.8781 61.95 44.3435C61.9485 43.0499 60.9 42.0014 59.6063 41.9999V43.8999C59.8513 43.8999 60.05 44.0986 60.05 44.3435C60.0515 47.1806 59.6135 50.0007 58.7513 52.7035C54.9348 48.6987 48.5944 48.5461 44.5896 52.3626C44.4732 52.4735 44.3596 52.5872 44.2486 52.7035C43.3866 50.0007 42.9486 47.1806 42.95 44.3435C42.9584 44.0929 43.1685 43.8966 43.4192 43.905C43.4707 43.9068 43.5214 43.9172 43.5694 43.936C46.0745 45.0127 48.7733 45.5666 51.5 45.5633C52.5003 45.5635 53.4993 45.4898 54.4887 45.3429L54.2094 43.4639C50.8573 43.9616 47.4328 43.5207 44.3161 42.1899C43.1262 41.6805 41.7486 42.2321 41.2392 43.4219C41.1145 43.7132 41.0501 44.0267 41.05 44.3435C41.0481 47.8781 41.6841 51.3841 42.9272 54.6928L42.9358 54.7166L42.19 74.1042C41.4351 73.7705 40.9303 73.0424 40.8828 72.2184L40.1 58.0967C40.0955 57.9993 40.076 57.9031 40.042 57.8117L39.3704 56.0228C37.9671 52.2889 37.2488 48.3325 37.25 44.3435C37.2505 40.95 40.0019 38.1994 43.3955 38.1999C44.2274 38.2 45.0506 38.3691 45.8152 38.6968C48.5514 39.877 51.5873 40.1758 54.501 39.5518L54.1058 37.6936C51.5758 38.2356 48.9396 37.9774 46.5628 36.9545C42.4799 35.2042 37.751 37.0952 36.0006 41.1783C35.5718 42.1785 35.3505 43.2553 35.35 44.3435C35.3492 47.9134 35.8938 51.4624 36.965 54.8676C35.6823 54.3124 34.2467 54.219 32.9028 54.6035L23.6878 57.2369C23.2806 57.3539 23.0001 57.7263 23 58.1499V79.0499C23 79.5745 23.4254 79.9999 23.95 79.9999H79.05C79.5746 79.9999 80 79.5745 80 79.0499V58.1499C79.9996 57.7257 79.7182 57.3532 79.3103 57.2369ZM42.0361 78.0999H24.9V58.8662L33.4262 56.4304C35.2944 55.8996 37.2815 56.7314 38.2142 58.4349L38.9866 72.3239C39.0901 74.1253 40.3601 75.6469 42.114 76.0707L42.0361 78.0999ZM44.8215 55.0348C46.316 52.8133 48.8225 51.4865 51.5 51.4999C54.1764 51.4875 56.6818 52.8141 58.1756 55.0348L58.91 74.0434C58.2835 73.721 57.8486 73.1188 57.7396 72.4227L55.7161 58.927C55.3657 56.6001 53.1953 54.9978 50.8684 55.3482C49.0194 55.6267 47.5679 57.0781 47.2896 58.927L45.2661 72.4227C45.1558 73.12 44.7187 73.7224 44.09 74.0434L44.8215 55.0348ZM43.937 78.0999L44.0149 76.0783C45.6457 75.6932 46.8816 74.3601 47.1423 72.7048L49.1668 59.2091C49.3583 57.9206 50.5583 57.0313 51.8469 57.2228C52.8739 57.3755 53.6805 58.182 53.8332 59.2091L55.8577 72.6991C56.1181 74.3547 57.354 75.6883 58.9851 76.0735L59.0629 78.0999H43.937ZM78.1 78.0999H60.9639L60.886 76.0707C62.6399 75.6469 63.9098 74.1253 64.0134 72.3239L64.7857 58.4349C65.7183 56.7312 67.7056 55.8992 69.5737 56.4304L78.1 58.8662V78.0999Z" fill="url(#paint0_linear_147)"/>
<path d="M79.0502 25.85H61.9502V23.95C61.9502 23.4254 61.5248 23 61.0002 23H53.4002C52.8756 23 52.4502 23.4254 52.4502 23.95V33.45C52.4502 33.9746 52.8756 34.4 53.4002 34.4H56.2502V48.65H58.1502V34.4H61.0002C61.5248 34.4 61.9502 33.9746 61.9502 33.45V31.55H79.0502C79.5748 31.55 80.0002 31.1246 80.0002 30.6V26.8C80.0002 26.2754 79.5748 25.85 79.0502 25.85ZM60.0502 32.5H54.3502V24.9H60.0502V32.5ZM78.1002 29.65H61.9502V27.75H78.1002V29.65Z" fill="url(#paint1_linear_147)"/>
<circle cx="52" cy="52" r="51" stroke="url(#paint2_linear_147)" stroke-width="2"/>

<defs>
<linearGradient id="paint0_linear_147" x1="32.6532" y1="29.3896" x2="79.2056" y2="64.4799" gradientUnits="userSpaceOnUse">
<stop stop-color="#F9DCA4"/>
<stop offset="1" stop-color="#C0A46E"/>
</linearGradient>
<linearGradient id="paint1_linear_147" x1="57.1159" y1="18.9427" x2="82.5877" y2="34.7525" gradientUnits="userSpaceOnUse">
<stop stop-color="#F9DCA4"/>
<stop offset="1" stop-color="#C0A46E"/>
</linearGradient>
<linearGradient id="paint2_linear_147" x1="79.7931" y1="95.931" x2="20.6207" y2="10.3103" gradientUnits="userSpaceOnUse">
<stop stop-color="#C0A46E"/>
<stop offset="1" stop-color="#F9DCA4"/>
</linearGradient>
</defs>
</svg>
