<svg width="104" height="105" viewBox="0 0 104 105" fill="none" xmlns="http://www.w3.org/2000/svg">
<g clip-path="url(#clip0_149)">
<path d="M45.3225 70.3064H29.8674C29.4965 70.3064 29.1407 70.1591 28.8784 69.8968C28.6161 69.6345 28.4688 69.2787 28.4688 68.9078V65.4541C28.4688 65.0831 28.6161 64.7274 28.8784 64.4651C29.1407 64.2028 29.4965 64.0554 29.8674 64.0554H45.3225C45.6934 64.0554 46.0492 64.2028 46.3115 64.4651C46.5738 64.7274 46.7211 65.0831 46.7211 65.4541V68.9097C46.7206 69.2803 46.573 69.6356 46.3108 69.8974C46.0486 70.1593 45.6931 70.3064 45.3225 70.3064ZM30.3327 68.4416H44.8544V65.924H30.3336L30.3327 68.4416Z" fill="url(#paint0_linear_149)"/>
<path d="M60.5582 85.6552H42.2359C41.6954 85.6544 41.1668 85.4965 40.7144 85.2007C40.262 84.9049 39.9054 84.4839 39.688 83.9891C39.4706 83.4942 39.4018 82.9468 39.49 82.4135C39.5781 81.8802 39.8195 81.3841 40.1846 80.9855L44.5241 76.2534C44.6069 76.1632 44.7066 76.0901 44.8176 76.0384C44.9286 75.9867 45.0487 75.9574 45.1711 75.9521C45.2934 75.9469 45.4156 75.9657 45.5307 76.0077C45.6457 76.0496 45.7514 76.1138 45.8416 76.1966C45.9319 76.2793 46.0049 76.3791 46.0566 76.4901C46.1083 76.6011 46.1377 76.7212 46.1429 76.8436C46.1482 76.9659 46.1294 77.0881 46.0874 77.2031C46.0455 77.3182 45.9813 77.4239 45.8985 77.5141L41.559 82.2462C41.4386 82.378 41.359 82.5419 41.33 82.718C41.3009 82.8941 41.3236 83.0749 41.3953 83.2384C41.467 83.4019 41.5845 83.5411 41.7338 83.639C41.883 83.737 42.0574 83.7895 42.2359 83.7903H60.5582C60.7371 83.7903 60.912 83.7383 61.0618 83.6405C61.2116 83.5428 61.3296 83.4035 61.4016 83.2398C61.4736 83.0761 61.4963 82.8949 61.4671 82.7185C61.4379 82.5421 61.3579 82.378 61.237 82.2462L56.8984 77.5141C56.7313 77.3317 56.6434 77.0904 56.6541 76.8432C56.6649 76.5961 56.7734 76.3633 56.9558 76.1961C57.1381 76.0289 57.3795 75.9411 57.6266 75.9518C57.8738 75.9626 58.1066 76.0711 58.2738 76.2534L62.6114 80.9855C62.9771 81.3841 63.2188 81.8804 63.3071 82.414C63.3955 82.9476 63.3266 83.4954 63.1089 83.9905C62.8912 84.4856 62.5341 84.9066 62.0812 85.2022C61.6282 85.4978 61.0991 85.6552 60.5582 85.6552Z" fill="url(#paint1_linear_149)"/>
<path d="M51.3974 78.8158C48.0625 78.8142 44.7779 78.0022 41.8263 76.4499C38.8747 74.8976 36.3444 72.6514 34.4532 69.9046C34.3838 69.8037 34.3348 69.6902 34.3092 69.5704C34.2836 69.4507 34.2818 69.3271 34.304 69.2066C34.3261 69.0862 34.3718 68.9713 34.4384 68.8685C34.5049 68.7657 34.5911 68.6771 34.6919 68.6076C34.7928 68.5381 34.9063 68.4891 35.0261 68.4635C35.1458 68.4379 35.2695 68.4361 35.3899 68.4583C35.5103 68.4805 35.6252 68.5261 35.728 68.5927C35.8308 68.6593 35.9195 68.7454 35.989 68.8463C37.4744 71.0115 39.3994 72.8393 41.6387 74.2106C43.8779 75.5819 46.381 76.4659 48.9847 76.8049C51.5885 77.144 54.2345 76.9304 56.7502 76.1783C59.2659 75.4261 61.5949 74.1522 63.5852 72.4396C65.5755 70.7269 67.1826 68.6141 68.3016 66.2387C69.4206 63.8633 70.0264 61.2788 70.0796 58.6536C70.1327 56.0284 69.632 53.4214 68.61 51.0027C67.5881 48.584 66.0678 46.4078 64.1484 44.6161C63.9674 44.4475 63.8607 44.214 63.8519 43.9668C63.8431 43.7197 63.9328 43.4791 64.1013 43.2981C64.2699 43.1171 64.5034 43.0104 64.7506 43.0016C64.9978 42.9927 65.2383 43.0825 65.4193 43.251C68.4357 46.0643 70.5353 49.7206 71.4448 53.7438C72.3543 57.767 72.0316 61.9708 70.5187 65.8081C69.0058 69.6453 66.3728 72.9383 62.9624 75.2583C59.552 77.5783 55.5221 78.818 51.3974 78.8158Z" fill="url(#paint2_linear_149)"/>
<path d="M51.3971 73.8749C47.6592 73.8737 44.0464 72.528 41.2186 70.0836C41.0315 69.9219 40.9164 69.6924 40.8985 69.4458C40.8805 69.1991 40.9613 68.9555 41.123 68.7684C41.2848 68.5813 41.5142 68.4662 41.7609 68.4482C42.0075 68.4303 42.2512 68.5111 42.4382 68.6728C45.1205 71.0025 48.6017 72.2014 52.1497 72.0173C55.6977 71.8332 59.0361 70.2805 61.4629 67.6857C63.8897 65.091 65.2158 61.6563 65.1624 58.1039C65.1089 54.5515 63.6801 51.1583 61.1764 48.6376C61.088 48.5511 61.0177 48.4478 60.9695 48.3338C60.9214 48.2198 60.8965 48.0974 60.8962 47.9736C60.8959 47.8499 60.9202 47.7273 60.9677 47.6131C61.0152 47.4988 61.085 47.3952 61.173 47.3082C61.261 47.2212 61.3654 47.1526 61.4802 47.1064C61.595 47.0601 61.7178 47.0372 61.8415 47.0389C61.9653 47.0406 62.0874 47.067 62.2009 47.1164C62.3143 47.1658 62.4168 47.2372 62.5023 47.3266C65.3949 50.2309 67.0156 54.1651 67.0078 58.2641C67.0032 62.4029 65.3569 66.3708 62.4304 69.2974C59.5038 72.224 55.5359 73.8702 51.3971 73.8749Z" fill="url(#paint3_linear_149)"/>
<path d="M59.5794 49.4303C58.3545 49.4304 57.157 49.0674 56.1384 48.387C55.1198 47.7066 54.3258 46.7394 53.857 45.6077C53.3881 44.4761 53.2653 43.2308 53.5041 42.0294C53.743 40.828 54.3328 39.7243 55.1989 38.8581C56.065 37.9919 57.1685 37.4019 58.3699 37.1629C59.5713 36.9239 60.8166 37.0464 61.9483 37.5152C63.08 37.9839 64.0473 38.7777 64.7279 39.7962C65.4084 40.8147 65.7717 42.0121 65.7717 43.237C65.77 44.8789 65.117 46.453 63.9562 47.6141C62.7953 48.7751 61.2213 49.4283 59.5794 49.4303ZM59.5794 38.9096C58.7233 38.9094 57.8863 39.1632 57.1744 39.6387C56.4624 40.1142 55.9075 40.7902 55.5798 41.5812C55.2521 42.3721 55.1663 43.2425 55.3332 44.0822C55.5002 44.9219 55.9125 45.6932 56.5179 46.2986C57.1233 46.904 57.8946 47.3162 58.7343 47.4832C59.574 47.6502 60.4444 47.5644 61.2353 47.2367C62.0262 46.909 62.7022 46.354 63.1778 45.6421C63.6533 44.9302 63.907 44.0932 63.9068 43.237C63.9053 42.0898 63.4489 40.99 62.6377 40.1787C61.8265 39.3675 60.7267 38.9111 59.5794 38.9096Z" fill="url(#paint4_linear_149)"/>
<path d="M59.5791 46.2404C58.985 46.2404 58.4044 46.0642 57.9105 45.7342C57.4166 45.4042 57.0316 44.9351 56.8043 44.3863C56.577 43.8376 56.5175 43.2337 56.6334 42.6511C56.7493 42.0685 57.0353 41.5333 57.4554 41.1133C57.8754 40.6933 58.4105 40.4072 58.9931 40.2914C59.5757 40.1755 60.1796 40.2349 60.7284 40.4623C61.2772 40.6896 61.7462 41.0745 62.0763 41.5684C62.4063 42.0623 62.5824 42.643 62.5824 43.237C62.5817 44.0333 62.265 44.7968 61.7019 45.3599C61.1389 45.923 60.3754 46.2396 59.5791 46.2404ZM59.5791 42.0985C59.3539 42.0985 59.1338 42.1653 58.9465 42.2904C58.7593 42.4155 58.6134 42.5933 58.5272 42.8013C58.441 43.0094 58.4185 43.2383 58.4624 43.4591C58.5064 43.68 58.6148 43.8828 58.774 44.0421C58.9332 44.2013 59.1361 44.3097 59.3569 44.3536C59.5778 44.3976 59.8067 44.375 60.0147 44.2888C60.2228 44.2027 60.4006 44.0568 60.5257 43.8695C60.6508 43.6823 60.7176 43.4622 60.7176 43.237C60.7173 42.9351 60.5973 42.6457 60.3838 42.4322C60.1704 42.2188 59.8809 42.0988 59.5791 42.0985Z" fill="url(#paint5_linear_149)"/>
<path d="M49.4485 54.1492H49.4186C49.2958 54.1457 49.175 54.1179 49.063 54.0675C48.951 54.0171 48.85 53.945 48.7659 53.8555L39.8192 44.3037C39.6504 44.1231 39.5602 43.8829 39.5684 43.6358C39.5766 43.3888 39.6826 43.1551 39.863 42.9861L62.6377 21.6465C62.8179 21.4776 63.0577 21.387 63.3045 21.3947C63.5513 21.4024 63.785 21.5077 63.9543 21.6875L72.901 31.2394C72.9847 31.3288 73.05 31.4338 73.0932 31.5485C73.1363 31.6632 73.1564 31.7852 73.1523 31.9077C73.1482 32.0301 73.1201 32.1505 73.0694 32.2621C73.0188 32.3737 72.9467 32.4741 72.8572 32.5578L64.2788 40.5926C64.1894 40.6763 64.0844 40.7417 63.9698 40.7848C63.8551 40.828 63.7331 40.8482 63.6107 40.8442C63.4882 40.8402 63.3678 40.8122 63.2562 40.7616C63.1446 40.7111 63.0441 40.6391 62.9603 40.5497C62.8766 40.4603 62.8113 40.3553 62.7681 40.2407C62.7249 40.126 62.7047 40.004 62.7087 39.8816C62.7127 39.7592 62.7408 39.6387 62.7913 39.5271C62.8418 39.4155 62.9138 39.315 63.0032 39.2312L70.9028 31.8333L63.2335 23.6428L41.8174 43.7097L49.4876 51.9011L55.3619 46.3998C55.4513 46.316 55.5562 46.2507 55.6708 46.2075C55.7854 46.1643 55.9073 46.1441 56.0297 46.148C56.1521 46.152 56.2725 46.18 56.3841 46.2304C56.4957 46.2809 56.5962 46.3529 56.6799 46.4422C56.7637 46.5315 56.829 46.6365 56.8722 46.7511C56.9154 46.8656 56.9356 46.9876 56.9317 47.11C56.9277 47.2324 56.8997 47.3528 56.8493 47.4643C56.7988 47.5759 56.7268 47.6764 56.6375 47.7602L50.0825 53.904C49.9095 54.0626 49.6831 54.1502 49.4485 54.1492Z" fill="url(#paint6_linear_149)"/>
<path d="M70.2595 30.7116C70.1318 30.7115 70.0055 30.6853 69.8885 30.6344C69.7714 30.5836 69.666 30.5093 69.5788 30.416L64.5614 25.0611C64.4775 24.9716 64.4121 24.8665 64.3689 24.7517C64.3257 24.637 64.3055 24.5148 64.3096 24.3923C64.3137 24.2697 64.3419 24.1492 64.3926 24.0375C64.4433 23.9259 64.5156 23.8254 64.6052 23.7417L67.6738 20.8661C68.0198 20.5423 68.4802 20.3691 68.9538 20.3845C69.4274 20.3999 69.8755 20.6026 70.1998 20.9481L74.0489 25.0564C74.3723 25.4026 74.5451 25.863 74.5296 26.3365C74.514 26.8101 74.3113 27.2581 73.9659 27.5824L70.8944 30.4598C70.7222 30.6211 70.4953 30.711 70.2595 30.7116ZM66.5605 24.4643L70.3024 28.4588L72.6334 26.2742L68.8916 22.2824L66.5605 24.4643Z" fill="url(#paint7_linear_149)"/>
<path d="M42.53 56.3768H42.4693C42.235 56.3706 42.0043 56.318 41.7904 56.222C41.5766 56.1259 41.3839 55.9884 41.2236 55.8174L37.3755 51.7091C37.0515 51.3632 36.8781 50.9028 36.8935 50.4291C36.9089 49.9554 37.1118 49.5072 37.4575 49.1831L41.8278 45.0888C41.9172 45.005 42.0222 44.9396 42.1368 44.8964C42.2515 44.8532 42.3735 44.8331 42.496 44.837C42.6184 44.841 42.7389 44.8691 42.8504 44.9197C42.962 44.9702 43.0626 45.0423 43.1463 45.1317L48.1637 50.4867C48.2475 50.5761 48.3127 50.6811 48.3559 50.7958C48.399 50.9105 48.4191 51.0325 48.415 51.155C48.411 51.2774 48.3828 51.3979 48.3322 51.5094C48.2815 51.621 48.2094 51.7214 48.1199 51.8051L43.7496 55.9004C43.4185 56.2087 42.9823 56.3791 42.53 56.3768ZM38.789 50.4857L42.5318 54.4793L46.1683 51.076L42.4265 47.0814L38.789 50.4857Z" fill="url(#paint8_linear_149)"/>
</g>
<circle cx="52" cy="52.52" r="51" stroke="url(#paint9_linear_149)" stroke-width="2"/>
<defs>
<linearGradient id="paint0_linear_149" x1="31.5599" y1="63.0666" x2="37.6363" y2="73.3196" gradientUnits="userSpaceOnUse">
<stop stop-color="#F9DCA4"/>
<stop offset="1" stop-color="#C0A46E"/>
</linearGradient>
<linearGradient id="paint1_linear_149" x1="43.4988" y1="74.4159" x2="53.6172" y2="88.8116" gradientUnits="userSpaceOnUse">
<stop stop-color="#F9DCA4"/>
<stop offset="1" stop-color="#C0A46E"/>
</linearGradient>
<linearGradient id="paint2_linear_149" x1="40.6668" y1="37.3358" x2="75.8939" y2="58.7424" gradientUnits="userSpaceOnUse">
<stop stop-color="#F9DCA4"/>
<stop offset="1" stop-color="#C0A46E"/>
</linearGradient>
<linearGradient id="paint3_linear_149" x1="45.3182" y1="42.7939" x2="70.7275" y2="57.0811" gradientUnits="userSpaceOnUse">
<stop stop-color="#F9DCA4"/>
<stop offset="1" stop-color="#C0A46E"/>
</linearGradient>
<linearGradient id="paint4_linear_149" x1="55.483" y1="35.0845" x2="67.3755" y2="41.9569" gradientUnits="userSpaceOnUse">
<stop stop-color="#F9DCA4"/>
<stop offset="1" stop-color="#C0A46E"/>
</linearGradient>
<linearGradient id="paint5_linear_149" x1="57.593" y1="39.2835" x2="63.3602" y2="42.6162" gradientUnits="userSpaceOnUse">
<stop stop-color="#F9DCA4"/>
<stop offset="1" stop-color="#C0A46E"/>
</linearGradient>
<linearGradient id="paint6_linear_149" x1="45.2556" y1="16.2131" x2="77.0924" y2="35.0769" gradientUnits="userSpaceOnUse">
<stop stop-color="#F9DCA4"/>
<stop offset="1" stop-color="#C0A46E"/>
</linearGradient>
<linearGradient id="paint7_linear_149" x1="66.0401" y1="18.7499" x2="75.9048" y2="24.3915" gradientUnits="userSpaceOnUse">
<stop stop-color="#F9DCA4"/>
<stop offset="1" stop-color="#C0A46E"/>
</linearGradient>
<linearGradient id="paint8_linear_149" x1="38.844" y1="43.0111" x2="49.9159" y2="49.3996" gradientUnits="userSpaceOnUse">
<stop stop-color="#F9DCA4"/>
<stop offset="1" stop-color="#C0A46E"/>
</linearGradient>
<linearGradient id="paint9_linear_149" x1="79.7931" y1="96.4511" x2="20.6207" y2="10.8304" gradientUnits="userSpaceOnUse">
<stop stop-color="#C0A46E"/>
<stop offset="1" stop-color="#F9DCA4"/>
</linearGradient>
<clipPath id="clip0_149">
<rect width="69" height="69" fill="white" transform="translate(17 18.52)"/>
</clipPath>
</defs>
</svg>
