<svg width="104" height="105" viewBox="0 0 104 105" fill="none" xmlns="http://www.w3.org/2000/svg">
<path d="M73.9039 33.8659H69.8757C69.4226 33.8659 69.0554 34.2331 69.0554 34.6862C69.0554 35.1394 69.4226 35.5065 69.8757 35.5065H73.9039C76.3607 35.5065 78.3594 37.5053 78.3594 39.962V64.1376C78.3594 66.3998 76.6607 68.3073 74.3991 68.5658C68.2475 69.269 62.0135 69.6865 55.8569 69.8081V67.1506H57.213C57.6661 67.1506 58.0333 66.7835 58.0333 66.3303V64.329C62.8458 62.0149 65.9261 57.1458 65.9261 51.7752C65.9261 44.0963 59.6788 37.849 51.9999 37.849C44.3211 37.849 38.0738 44.0963 38.0738 51.7752C38.0738 53.2189 38.2948 54.6441 38.7308 56.011C38.8686 56.4426 39.3301 56.6808 39.7617 56.5432C40.1933 56.4055 40.4316 55.944 40.2939 55.5124C39.9093 54.307 39.7144 53.0495 39.7144 51.7752C39.7144 45.0008 45.2257 39.4896 51.9999 39.4896C58.7742 39.4896 64.2855 45.0009 64.2855 51.7752C64.2855 56.243 61.869 60.3175 58.0333 62.4796V58.8406H58.5951C59.6056 58.8406 60.4279 58.0184 60.4279 57.0078V54.7217C60.4279 53.7112 59.6056 52.8889 58.5951 52.8889H55.8569V51.8081C55.8569 50.8936 55.113 50.1496 54.1985 50.1496H49.8016C48.8871 50.1496 48.1432 50.8936 48.1432 51.8081V52.8889H45.405C44.3944 52.8889 43.5721 53.7112 43.5721 54.7217V57.0078C43.5721 58.0184 44.3944 58.8406 45.405 58.8406H45.9668V62.4793C44.2444 61.5085 42.7818 60.1372 41.6921 58.4608C41.4452 58.0809 40.937 57.9733 40.5573 58.2202C40.1774 58.4671 40.0697 58.9752 40.3166 59.3551C41.7178 61.5106 43.6636 63.2212 45.9668 64.3288V66.3303C45.9668 66.7835 46.334 67.1506 46.7871 67.1506H48.1432V69.8082C41.9857 69.6866 35.7516 69.2691 29.601 68.5659C27.3337 68.3067 25.6406 66.3944 25.6406 64.1376V39.962C25.6406 37.5053 27.6393 35.5065 30.0961 35.5065H40.2443C42.2017 35.5065 44.0147 34.6211 45.2184 33.0777C46.109 31.9356 47.4504 31.2805 48.8986 31.2805H55.1013C56.5495 31.2805 57.8909 31.9356 58.7815 33.0778C59.9853 34.6213 61.7982 35.5065 63.7555 35.5065H66.5958C67.0489 35.5065 67.4161 35.1394 67.4161 34.6862C67.4161 34.2331 67.0489 33.8659 66.5958 33.8659H63.7555C62.3073 33.8659 60.9659 33.2109 60.0753 32.0687C58.8715 30.5252 57.0586 29.6399 55.1013 29.6399H48.8986C46.9413 29.6399 45.1281 30.5253 43.9246 32.0688C43.0338 33.2109 41.6926 33.8659 40.2443 33.8659H30.0961C26.7347 33.8659 24 36.6006 24 39.962V64.1376C24 66.5027 25.3542 68.579 27.3663 69.5877V72.6894C27.3663 74.1842 28.5825 75.4002 30.0773 75.4002H33.9545C34.4077 75.4002 34.7748 75.0331 34.7748 74.5799C34.7748 74.1268 34.4077 73.7596 33.9545 73.7596H30.0773C29.4871 73.7596 29.007 73.2794 29.007 72.6894V70.1355C29.1413 70.16 29.2771 70.1802 29.4146 70.1958C35.6268 70.9061 41.9238 71.3273 48.1431 71.4492V73.7596H37.2345C36.7813 73.7596 36.4141 74.1268 36.4141 74.5799C36.4141 75.0331 36.7813 75.4002 37.2345 75.4002H73.9227C75.4175 75.4002 76.6335 74.1842 76.6335 72.6894V69.5878C78.6458 68.5791 80 66.5028 80 64.1377V39.962C80 36.6006 77.2653 33.8659 73.9039 33.8659ZM49.7837 51.8082C49.7837 51.7983 49.7917 51.7904 49.8015 51.7904H54.1984C54.2082 51.7904 54.2162 51.7983 54.2162 51.8082V52.889H49.7837V51.8082ZM45.2126 57.0079V54.7217C45.2126 54.6157 45.2988 54.5295 45.4049 54.5295H58.5951C58.7011 54.5295 58.7873 54.6157 58.7873 54.7217V57.0078C58.7873 57.1137 58.7011 57.1999 58.5951 57.1999H45.4049C45.2988 57.2 45.2126 57.1137 45.2126 57.0079ZM47.6073 58.8407H56.3927V65.5101H47.6073C47.6073 63.8716 47.6073 60.4987 47.6073 58.8407ZM49.7837 73.7596V67.1506H54.2162V73.7596H49.7837ZM74.9929 72.6894C74.9929 73.2796 74.5128 73.7596 73.9227 73.7596H55.8569V71.4491C62.0753 71.3273 68.3723 70.9061 74.5854 70.1958C74.7228 70.1801 74.8586 70.1599 74.9929 70.1355V72.6894Z" fill="url(#paint0_linear_149)"/>
<path d="M32.5073 54.0166C32.0596 54.0866 31.7534 54.5062 31.8234 54.9537C32.5438 59.5611 34.86 63.8254 38.3453 66.9612C38.5021 67.1023 38.6982 67.1717 38.8938 67.1717C39.1182 67.1717 39.3419 67.0801 39.5038 66.9002C39.8068 66.5634 39.7795 66.0447 39.4426 65.7417C36.2367 62.8573 34.1066 58.9361 33.4444 54.7004C33.3745 54.2528 32.9557 53.9466 32.5073 54.0166Z" fill="url(#paint1_linear_149)"/>
<path d="M70.555 54.7004C69.8926 58.9364 67.7626 62.8574 64.5568 65.7417C64.22 66.0447 64.1927 66.5634 64.4956 66.9002C64.6575 67.0802 64.8811 67.1717 65.1056 67.1717C65.3011 67.1717 65.4973 67.1023 65.6541 66.9612C69.1393 63.8255 71.4555 59.5612 72.1759 54.9537C72.2459 54.5061 71.9398 54.0864 71.4921 54.0166C71.0449 53.9466 70.6251 54.2528 70.555 54.7004Z" fill="url(#paint2_linear_149)"/>
<path d="M49.0444 33.4202C48.5913 33.4202 48.2241 33.7873 48.2241 34.2405C48.2241 34.6936 48.5913 35.0608 49.0444 35.0608H54.9558C55.409 35.0608 55.7761 34.6936 55.7761 34.2405C55.7761 33.7873 55.409 33.4202 54.9558 33.4202H49.0444Z" fill="url(#paint3_linear_149)"/>
<path d="M29.8508 39.516C28.9661 40.4008 28.4024 41.5123 28.2636 42.6455C28.1155 43.854 28.46 44.9453 29.2333 45.7186C29.8893 46.3747 30.7742 46.7221 31.7651 46.7221C31.9424 46.7221 32.123 46.711 32.3064 46.6885C33.4397 46.5497 34.5511 45.9859 35.436 45.1012C37.3161 43.2209 37.5933 40.4384 36.0534 38.8984C34.5136 37.3585 31.7312 37.6359 29.8508 39.516ZM34.2759 43.9411C33.649 44.5681 32.8787 44.9656 32.1071 45.06C31.4104 45.1453 30.8021 44.9671 30.3935 44.5585C29.9849 44.15 29.8068 43.5413 29.8921 42.8449C29.9865 42.0734 30.3839 41.303 31.011 40.6761C31.7597 39.9274 32.6904 39.5297 33.509 39.5297C34.0469 39.5297 34.5365 39.7017 34.8934 40.0586C35.7936 40.9587 35.5166 42.7005 34.2759 43.9411Z" fill="url(#paint4_linear_149)"/>
<path d="M74.7671 45.7186C76.3068 44.1787 76.0299 41.3962 74.1495 39.5158C72.2691 37.6357 69.4868 37.3582 67.9468 38.8984C66.4071 40.4383 66.684 43.2208 68.5643 45.1011C69.4491 45.9858 70.5606 46.5495 71.6938 46.6883C71.8773 46.7108 72.0578 46.722 72.2351 46.722C73.2262 46.722 74.1111 46.3745 74.7671 45.7186ZM71.8933 45.0598C71.1218 44.9654 70.3515 44.568 69.7245 43.9409C68.4839 42.7004 68.2069 40.9586 69.107 40.0585C69.4641 39.7014 69.9532 39.5296 70.4914 39.5296C71.3097 39.5296 72.2409 39.9275 72.9894 40.676C74.2301 41.9166 74.5071 43.6583 73.6069 44.5585C73.1983 44.9672 72.589 45.1451 71.8933 45.0598Z" fill="url(#paint5_linear_149)"/>
<path d="M50.707 63.3973H53.2933C53.7465 63.3973 54.1136 63.0302 54.1136 62.577C54.1136 62.1239 53.7465 61.7567 53.2933 61.7567H50.707C50.2539 61.7567 49.8867 62.1239 49.8867 62.577C49.8867 63.0302 50.2539 63.3973 50.707 63.3973Z" fill="url(#paint6_linear_149)"/>
<circle cx="52" cy="52.52" r="51" stroke="url(#paint7_linear_149)" stroke-width="2"/>
<defs>
<linearGradient id="paint0_linear_149" x1="33.4839" y1="22.4015" x2="81.2951" y2="56.2128" gradientUnits="userSpaceOnUse">
<stop stop-color="#F9DCA4"/>
<stop offset="1" stop-color="#C0A46E"/>
</linearGradient>
<linearGradient id="paint1_linear_149" x1="33.1515" y1="51.9241" x2="42.1842" y2="55.0567" gradientUnits="userSpaceOnUse">
<stop stop-color="#F9DCA4"/>
<stop offset="1" stop-color="#C0A46E"/>
</linearGradient>
<linearGradient id="paint2_linear_149" x1="65.6232" y1="51.9241" x2="74.6557" y2="55.0566" gradientUnits="userSpaceOnUse">
<stop stop-color="#F9DCA4"/>
<stop offset="1" stop-color="#C0A46E"/>
</linearGradient>
<linearGradient id="paint3_linear_149" x1="49.5031" y1="33.1607" x2="50.7008" y2="36.3465" gradientUnits="userSpaceOnUse">
<stop stop-color="#F9DCA4"/>
<stop offset="1" stop-color="#C0A46E"/>
</linearGradient>
<linearGradient id="paint4_linear_149" x1="29.7235" y1="36.5078" x2="38.1911" y2="41.4008" gradientUnits="userSpaceOnUse">
<stop stop-color="#F9DCA4"/>
<stop offset="1" stop-color="#C0A46E"/>
</linearGradient>
<linearGradient id="paint5_linear_149" x1="68.4434" y1="36.5075" x2="76.9074" y2="41.3943" gradientUnits="userSpaceOnUse">
<stop stop-color="#F9DCA4"/>
<stop offset="1" stop-color="#C0A46E"/>
</linearGradient>
<linearGradient id="paint6_linear_149" x1="50.6026" y1="61.4972" x2="52.2856" y2="64.0029" gradientUnits="userSpaceOnUse">
<stop stop-color="#F9DCA4"/>
<stop offset="1" stop-color="#C0A46E"/>
</linearGradient>
<linearGradient id="paint7_linear_149" x1="79.7931" y1="96.4511" x2="20.6207" y2="10.8304" gradientUnits="userSpaceOnUse">
<stop stop-color="#C0A46E"/>
<stop offset="1" stop-color="#F9DCA4"/>
</linearGradient>
</defs>
</svg>
