<svg width="104" height="104" viewBox="0 0 104 104" fill="none" xmlns="http://www.w3.org/2000/svg">
<path d="M37.4127 32.2999C37.4704 31.9233 37.2484 31.5599 36.8869 31.4393L29.8457 29.0923C29.4765 28.9688 29.0728 29.1355 28.8983 29.4834L28.1159 31.0482C27.9206 31.4336 28.0747 31.9044 28.4601 32.0997C28.4622 32.1007 28.4642 32.1017 28.4664 32.1028L32.6356 34.1831L31.1765 42.2117C31.1701 42.2442 31.1657 42.2772 31.1632 42.3102L29.5985 72.0399C29.5868 72.2615 29.6699 72.4777 29.8269 72.6345L32.9564 75.764C33.2619 76.0694 33.7571 76.0694 34.0626 75.764L37.1921 72.6345C37.3491 72.4777 37.4321 72.2615 37.4205 72.0399L35.8558 42.3885L37.4127 32.2999ZM32.7279 42.4425L34.2793 33.8858C34.3419 33.5436 34.171 33.2012 33.86 33.0455L29.8699 31.0489L29.999 30.7908L35.7705 32.7146L34.302 42.2328C34.2936 42.2858 34.2908 42.3396 34.2934 42.3932L34.4968 46.2635H32.5229L32.7279 42.4425ZM32.4408 47.8282H34.5798L34.6619 49.3929H32.3586L32.4408 47.8282ZM32.2718 50.9577H34.7441L34.8262 52.5224H32.1936L32.2718 50.9577ZM32.1075 54.0871H34.9091L34.9913 55.6518H32.0293L32.1075 54.0871ZM31.9455 57.2165H35.075L35.1571 58.7813H31.8673L31.9455 57.2165ZM31.782 60.346H35.2401L35.3222 61.9107H31.6999L31.782 60.346ZM33.5103 74.1046L31.1804 71.7739L31.6177 63.4754H35.4028L35.8401 71.7739L33.5103 74.1046Z" fill="url(#paint0_linear_147)"/>
<path d="M46.5807 32.7341C46.8862 32.4286 46.8862 31.9332 46.5807 31.6277C46.5546 31.6015 46.5266 31.5773 46.497 31.5551L43.3675 29.208L42.4287 30.4598L44.8368 32.2655L43.1273 33.9749C42.9806 34.1216 42.8981 34.3205 42.8981 34.5281V38.4399H42.1158C41.6837 38.4399 41.3334 38.7902 41.3334 39.2222V65.8225C41.3334 66.2545 41.6837 66.6048 42.1158 66.6048H42.8981V69.2046L40.9422 69.987C39.3456 70.6283 38.5713 72.4425 39.2127 74.0391C39.6866 75.2187 40.8296 75.9921 42.1009 75.9932H44.4628V74.4284H42.1009C41.2449 74.4293 40.5503 73.7361 40.5495 72.8801C40.5488 72.2453 40.9354 71.6742 41.5251 71.439L43.9707 70.4611C44.268 70.3424 44.4629 70.0544 44.4628 69.7343V66.6048H45.2452C45.6772 66.6048 46.0275 66.2545 46.0275 65.8225V39.2222C46.0275 38.7902 45.6772 38.4399 45.2452 38.4399H44.4628V34.852L46.5807 32.7341ZM44.4628 65.0401H42.8981V63.4754H44.4628V65.0401ZM44.4628 61.9107H42.8981V43.134H44.4628V61.9107ZM44.4628 41.5693H42.8981V40.0046H44.4628V41.5693Z" fill="url(#paint1_linear_147)"/>
<path d="M73.4108 47.8283H72.6285V40.8497C74.9607 39.3468 75.6797 35.8324 74.1932 32.8109C73.4325 31.166 72.0392 29.8983 70.3299 29.2958C69.1177 28.8861 67.7906 28.9925 66.6591 29.5899C64.0953 30.9763 63.2597 34.6643 64.8049 37.8141C65.5656 39.459 66.9589 40.7268 68.6682 41.3293C69.1608 41.4887 69.6752 41.5705 70.193 41.5718C70.4856 41.5678 70.7772 41.5359 71.0638 41.4763V47.8283H70.2814C69.8493 47.8283 69.499 48.1786 69.499 48.6107V75.2109C69.499 75.643 69.8493 75.9933 70.2814 75.9933H73.4108C73.8429 75.9933 74.1932 75.643 74.1932 75.2109V48.6107C74.1932 48.1786 73.8429 47.8283 73.4108 47.8283ZM69.1423 39.8342C67.8385 39.3625 66.7803 38.3845 66.2077 37.1217C65.0302 34.7207 65.5685 31.9582 67.4062 30.9661C67.8351 30.7342 68.3152 30.614 68.8027 30.6164C69.1606 30.6182 69.5159 30.676 69.8558 30.7877C71.1593 31.2594 72.2175 32.2371 72.7904 33.4994C73.9679 35.9005 73.4296 38.663 71.5919 39.655C70.8361 40.0538 69.948 40.1188 69.1423 39.8342ZM72.6285 74.4286H71.0638V52.5225H72.6285V74.4286ZM72.6285 50.9578H71.0638V49.3931H72.6285V50.9578Z" fill="url(#paint2_linear_147)"/>
<path d="M67.0926 70.5288C66.7548 68.5148 65.1537 66.9501 63.1324 66.6589L59.3177 43.0097C59.286 42.8094 59.1773 42.6295 59.0149 42.5082L58.2842 41.9606L59.0149 41.4129C59.2271 41.2546 59.3449 40.9996 59.3278 40.7354L58.5455 29L56.9807 29.1033L57.7349 40.4154L56.9807 40.9826L56.225 40.4154L56.9807 29.1033L55.416 29L54.6337 40.7354C54.6166 40.9996 54.7344 41.2546 54.9466 41.4129L55.6773 41.9606L54.9466 42.5082C54.7842 42.6295 54.6755 42.8095 54.6438 43.0097L50.829 66.6589C48.263 67.0286 46.4825 69.4085 46.8523 71.9745C47.2221 74.5404 49.6019 76.321 52.1679 75.9512C54.1891 75.66 55.7902 74.0953 56.128 72.0814H57.8335C58.2623 74.6382 60.6826 76.3633 63.2394 75.9345C65.7963 75.5056 67.5213 73.0855 67.0926 70.5288ZM51.5042 74.4285C49.7759 74.4285 48.3748 73.0274 48.3748 71.2991C48.3748 69.5708 49.7759 68.1697 51.5042 68.1697C53.2326 68.1697 54.6337 69.5708 54.6337 71.2991C54.6337 73.0274 53.2326 74.4285 51.5042 74.4285ZM57.8335 70.5167H56.128C55.8005 68.5948 54.3209 67.0741 52.4086 66.6941L56.1381 43.5707L56.9807 42.9385L57.8233 43.5707L61.5529 66.6941C59.6406 67.0741 58.161 68.5948 57.8335 70.5167ZM62.4573 74.4285C60.7289 74.4285 59.3278 73.0274 59.3278 71.2991C59.3278 69.5708 60.7289 68.1697 62.4573 68.1697C64.1856 68.1697 65.5867 69.5708 65.5867 71.2991C65.5867 73.0274 64.1856 74.4285 62.4573 74.4285Z" fill="url(#paint3_linear_147)"/>
<circle cx="52" cy="52" r="51" stroke="url(#paint4_linear_147)" stroke-width="2"/>
<defs>
<linearGradient id="paint0_linear_147" x1="29.6216" y1="21.6266" x2="41.4899" y2="22.9986" gradientUnits="userSpaceOnUse">
<stop stop-color="#F9DCA4"/>
<stop offset="1" stop-color="#C0A46E"/>
</linearGradient>
<linearGradient id="paint1_linear_147" x1="40.3121" y1="21.8076" x2="50.2381" y2="22.7666" gradientUnits="userSpaceOnUse">
<stop stop-color="#F9DCA4"/>
<stop offset="1" stop-color="#C0A46E"/>
</linearGradient>
<linearGradient id="paint2_linear_147" x1="65.8816" y1="21.6249" x2="79.6436" y2="23.4783" gradientUnits="userSpaceOnUse">
<stop stop-color="#F9DCA4"/>
<stop offset="1" stop-color="#C0A46E"/>
</linearGradient>
<linearGradient id="paint3_linear_147" x1="50.2508" y1="21.5656" x2="74.783" y2="27.705" gradientUnits="userSpaceOnUse">
<stop stop-color="#F9DCA4"/>
<stop offset="1" stop-color="#C0A46E"/>
</linearGradient>
<linearGradient id="paint4_linear_147" x1="79.7931" y1="95.931" x2="20.6207" y2="10.3103" gradientUnits="userSpaceOnUse">
<stop stop-color="#C0A46E"/>
<stop offset="1" stop-color="#F9DCA4"/>
</linearGradient>
</defs>
</svg>
