<svg width="104" height="105" viewBox="0 0 104 105" fill="none" xmlns="http://www.w3.org/2000/svg">
<g clip-path="url(#clip0_149)">
<path d="M33.9859 29.8682C33.922 29.4906 33.6262 29.1948 33.2486 29.1309C31.7822 28.8859 30.6332 27.7366 30.3886 26.27C30.3057 25.78 29.8412 25.4499 29.3512 25.5328C28.9736 25.5967 28.6778 25.8924 28.6139 26.27C28.3694 27.7366 27.2204 28.886 25.7539 29.1309C25.2639 29.2138 24.9337 29.6783 25.0167 30.1683C25.0806 30.546 25.3763 30.8417 25.7539 30.9056C27.2204 31.1506 28.3694 32.3 28.6139 33.7665C28.6968 34.2565 29.1613 34.5867 29.6513 34.5038C30.029 34.4399 30.3247 34.1441 30.3886 33.7665C30.6332 32.3 31.7822 31.1506 33.2486 30.9056C33.7386 30.8228 34.0688 30.3583 33.9859 29.8682ZM29.5013 31.3034C29.1504 30.804 28.7155 30.3691 28.2162 30.0183C28.7155 29.6674 29.1504 29.2325 29.5013 28.7332C29.8521 29.2325 30.287 29.6674 30.7864 30.0183C30.2869 30.3693 29.8521 30.804 29.5013 31.3034Z" fill="url(#paint0_linear_149)"/>
<path d="M60.7526 30.9172C59.0119 30.9171 57.2894 31.2707 55.6896 31.9567C53.3323 32.9609 50.6674 32.9609 48.3101 31.9567C41.7892 29.1609 34.2366 32.1807 31.4408 38.7017C30.7549 40.3015 30.4013 42.024 30.4014 43.7647C30.3996 49.0646 31.8891 54.258 34.6995 58.7514L34.9568 59.1644L38.8428 76.2632C39.3538 78.5151 41.5937 79.9263 43.8455 79.4152C45.5021 79.0393 46.7665 77.6986 47.0448 76.0229L49.7446 59.8295C49.9535 58.5834 51.133 57.7428 52.379 57.9516C53.3414 58.1131 54.0956 58.8671 54.2569 59.8295L56.9567 76.022C57.3367 78.3002 59.4915 79.839 61.7697 79.4591C63.4439 79.1799 64.7832 77.9165 65.1596 76.2614L69.0446 59.1626L69.302 58.7496C72.1115 54.2565 73.6003 49.0638 73.5983 43.7647C73.5988 36.6697 67.8475 30.9178 60.7526 30.9172ZM67.7739 57.7983L67.4355 58.3383C67.3824 58.4239 67.3436 58.5175 67.3204 58.6155L63.4029 75.86C63.1112 77.1429 61.8348 77.9464 60.5519 77.6547C59.6092 77.4404 58.8896 76.6776 58.7305 75.7241L56.0307 59.5316C55.659 57.3055 53.553 55.802 51.3268 56.1738C49.6053 56.4612 48.2564 57.8101 47.969 59.5316L45.2692 75.7251C45.0542 77.0224 43.8281 77.9 42.5307 77.6849C41.5757 77.5266 40.8115 76.806 40.5976 75.8618L36.6793 58.6164C36.656 58.5184 36.6172 58.4248 36.5641 58.3392L36.2258 57.7992C33.5945 53.5911 32.1999 48.7278 32.2012 43.7647C32.2082 37.6666 37.1499 32.725 43.248 32.718C44.7443 32.7164 46.2252 33.0202 47.6 33.6107C50.4107 34.8099 53.589 34.8099 56.3996 33.6107C62.0079 31.2077 68.5024 33.8059 70.9055 39.4142C71.4946 40.789 71.7983 42.269 71.7984 43.7647C71.7996 48.7275 70.405 53.5904 67.7739 57.7983Z" fill="url(#paint1_linear_149)"/>
<path d="M40.301 37.2178L40.121 36.3358C38.3211 36.6967 34.9014 38.6622 34.9014 43.5173H36.7012C36.7012 38.9537 40.328 38.1321 40.481 38.0988L40.301 37.2178Z" fill="url(#paint2_linear_149)"/>
<path d="M43.9005 36.3177H42.1006V38.1176H43.9005V36.3177Z" fill="url(#paint3_linear_149)"/>
<path d="M78.9829 67.6655C78.919 67.2878 78.6233 66.9921 78.2457 66.9282C76.7792 66.6832 75.6302 65.5338 75.3857 64.0673C75.3028 63.5773 74.8383 63.2471 74.3483 63.33C73.9706 63.3939 73.6749 63.6896 73.611 64.0673C73.3664 65.5338 72.2174 66.6832 70.751 66.9282C70.261 67.0111 69.9308 67.4756 70.0137 67.9656C70.0776 68.3432 70.3734 68.639 70.751 68.7029C72.2174 68.9479 73.3664 70.0972 73.611 71.5637C73.6939 72.0538 74.1584 72.3839 74.6484 72.301C75.026 72.2371 75.3218 71.9414 75.3857 71.5637C75.6302 70.0972 76.7792 68.9479 78.2457 68.7029C78.7357 68.6201 79.0658 68.1556 78.9829 67.6655ZM74.4983 69.1006C74.1475 68.6013 73.7126 68.1664 73.2132 67.8155C73.7126 67.4647 74.1475 67.0298 74.4983 66.5304C74.8492 67.0298 75.2841 67.4647 75.7834 67.8155C75.284 68.1665 74.8492 68.6013 74.4983 69.1006Z" fill="url(#paint4_linear_149)"/>
</g>
<circle cx="52" cy="52.52" r="51" stroke="url(#paint5_linear_149)" stroke-width="2"/>
<defs>
<linearGradient id="paint0_linear_149" x1="26.5272" y1="24.097" x2="35.1641" y2="29.087" gradientUnits="userSpaceOnUse">
<stop stop-color="#F9DCA4"/>
<stop offset="1" stop-color="#C0A46E"/>
</linearGradient>
<linearGradient id="paint1_linear_149" x1="37.717" y1="23.2255" x2="81.495" y2="45.7084" gradientUnits="userSpaceOnUse">
<stop stop-color="#F9DCA4"/>
<stop offset="1" stop-color="#C0A46E"/>
</linearGradient>
<linearGradient id="paint2_linear_149" x1="35.8463" y1="35.1998" x2="41.7935" y2="37.87" gradientUnits="userSpaceOnUse">
<stop stop-color="#F9DCA4"/>
<stop offset="1" stop-color="#C0A46E"/>
</linearGradient>
<linearGradient id="paint3_linear_149" x1="42.4054" y1="36.033" x2="44.1335" y2="37.0317" gradientUnits="userSpaceOnUse">
<stop stop-color="#F9DCA4"/>
<stop offset="1" stop-color="#C0A46E"/>
</linearGradient>
<linearGradient id="paint4_linear_149" x1="71.5243" y1="61.8942" x2="80.1612" y2="66.8843" gradientUnits="userSpaceOnUse">
<stop stop-color="#F9DCA4"/>
<stop offset="1" stop-color="#C0A46E"/>
</linearGradient>
<linearGradient id="paint5_linear_149" x1="79.7931" y1="96.4511" x2="20.6207" y2="10.8304" gradientUnits="userSpaceOnUse">
<stop stop-color="#C0A46E"/>
<stop offset="1" stop-color="#F9DCA4"/>
</linearGradient>
<clipPath id="clip0_149">
<rect width="54" height="54" fill="white" transform="translate(25 25.52)"/>
</clipPath>
</defs>
</svg>
