<svg width="104" height="104" viewBox="0 0 104 104" fill="none" xmlns="http://www.w3.org/2000/svg">
<g clip-path="url(#clip0_147:733)">
   <path d="M82.9143 44.5364C82.8068 44.3073 82.6106 44.1393 82.3784 44.0619C81.1427 43.4489 79.8846 42.8424 78.6665 42.2553C76.9917 41.4481 75.2599 40.6135 73.5776 39.7573C72.6104 39.265 71.5911 38.689 70.512 38.0793C64.9123 34.9152 57.9883 31.0017 51.9996 35.5812C48.9017 33.2186 45.1768 32.8777 40.6396 34.5349C40.1686 34.7069 39.9263 35.2281 40.0983 35.6991C40.2704 36.17 40.7917 36.4123 41.2625 36.2404C45.4752 34.7016 48.6976 35.0821 51.404 37.4374C51.7457 37.7347 52.2542 37.7347 52.5959 37.4374C57.749 32.9524 64.055 36.5162 69.6186 39.66C70.7155 40.2798 71.7515 40.8653 72.7539 41.3755C74.4537 42.2406 76.1945 43.0796 77.8781 43.8911C78.242 44.0664 78.6095 44.2434 78.9787 44.4219C73.9865 45.0384 63.3391 46.1684 52.0126 46.2209C52.0098 46.2209 51.9995 46.2208 51.9915 46.2208C40.6619 46.1683 30.0135 45.0384 25.0212 44.4219C25.3905 44.2434 25.7579 44.0664 26.1218 43.8911C27.8053 43.0796 33.2847 40.2797 34.3817 39.6598C35.3605 39.1068 36.3726 38.5347 37.3972 37.9975L37.5811 37.9015C38.0257 37.6696 38.198 37.1212 37.966 36.6768C37.7339 36.2322 37.1854 36.0598 36.7412 36.2919L36.5557 36.3887C35.5042 36.94 34.4795 37.5191 33.4885 38.0792C32.4092 38.689 27.0083 41.4482 25.3335 42.2554C24.1154 42.8425 22.8573 43.4491 21.6214 44.062C21.3893 44.1394 21.1931 44.3074 21.0858 44.5364C20.9364 44.8552 20.9847 45.2317 21.21 45.5025C22.3553 46.8787 23.487 48.2165 24.3451 49.2281L24.583 49.5087C29.9022 55.7816 34.9264 61.7067 41.8227 65.4271C45.2467 67.2744 48.6233 68.1981 51.9999 68.1981C55.3764 68.1981 58.7532 67.2744 62.1774 65.4271C69.0737 61.7066 74.0979 55.7816 79.4172 49.5085L79.6549 49.2281C80.928 47.7273 81.8948 46.5783 82.7901 45.5025C83.0154 45.2318 83.0637 44.8553 82.9143 44.5364ZM63.9031 47.6284C64.9258 47.5658 65.9242 47.4983 66.8923 47.4272V49.5006C66.8923 49.52 66.8766 49.5357 66.8572 49.5357H63.9383C63.9189 49.5357 63.9031 49.52 63.9031 49.5006V47.6284ZM58.8247 47.8839C59.9314 47.8407 61.0208 47.7898 62.0875 47.7328V49.5006V51.196C62.0875 51.2451 62.0476 51.2849 61.9986 51.2849H58.9135C58.8646 51.2849 58.8247 51.2451 58.8247 51.196V47.8839ZM52.892 48.03C54.2655 48.0171 55.627 47.9889 56.9679 47.9483V51.0366C56.9679 51.1735 56.8565 51.2849 56.7195 51.2849H53.1403C53.0034 51.2849 52.892 51.1735 52.892 51.0366V48.03ZM46.9912 47.947C48.3321 47.9878 49.6934 48.0164 51.0671 48.0297V51.0364C51.0671 51.1734 50.9557 51.2848 50.8187 51.2848H47.2396C47.1026 51.2848 46.9912 51.1734 46.9912 51.0364V47.947ZM41.9128 49.5006V47.7326C42.9796 47.7898 44.0686 47.8408 45.1755 47.884V51.0364V51.196C45.1755 51.2451 45.1357 51.2849 45.0867 51.2849H42.0016C41.9526 51.2849 41.9128 51.2451 41.9128 51.196V49.5006ZM37.1079 47.4271C38.0761 47.4982 39.0743 47.5658 40.0971 47.6284V49.5006C40.0971 49.52 40.0813 49.5357 40.062 49.5357H37.143C37.1236 49.5357 37.1079 49.52 37.1079 49.5006V47.4271ZM78.0324 48.3342C72.827 54.473 67.9104 60.2713 61.3155 63.8291C58.127 65.5493 55.08 66.3854 52 66.3854H51.9942C48.9163 66.3843 45.8713 65.5482 42.685 63.8293C36.09 60.2714 31.1734 54.4732 25.9681 48.3345C25.9681 48.3345 24.7038 46.8427 24.1099 46.1374C25.1818 46.2735 26.5934 46.4434 28.2746 46.6252C30.8148 51.2599 34.6796 54.9033 39.7726 57.4596C43.7089 59.4354 47.8028 60.4277 51.9063 60.4275C54.9665 60.4274 58.0326 59.8753 61.0404 58.7674L61.1633 58.7225C61.6341 58.5504 61.8764 58.0291 61.7042 57.5582C61.5321 57.0873 61.0106 56.8449 60.5399 57.0173L60.4149 57.0629C53.8553 59.479 46.9989 59.055 40.587 55.8368C36.2461 53.658 32.868 50.6412 30.516 46.8576C31.9748 47.0024 33.578 47.1488 35.2924 47.287V49.5004C35.2924 50.5209 36.1227 51.3512 37.1432 51.3512H40.0622C40.0767 51.3512 40.0907 51.3493 40.1051 51.349C40.1835 52.3275 41.0033 53.1004 42.0018 53.1004H45.0869C45.4766 53.1004 45.839 52.9823 46.1411 52.7806C46.4597 52.9819 46.8357 53.1004 47.2397 53.1004H50.8188C51.2491 53.1004 51.6487 52.9678 51.9796 52.7417C52.3107 52.9678 52.7103 53.1004 53.1405 53.1004H56.7196C57.1327 53.1004 57.5169 52.9772 57.8399 52.7675C58.1459 52.9772 58.5154 53.1004 58.9136 53.1004H61.9987C62.9971 53.1004 63.8169 52.3277 63.8954 51.349C63.9098 51.3493 63.9239 51.3512 63.9383 51.3512H66.8572C67.8778 51.3512 68.708 50.5209 68.708 49.5004V47.2871C70.3495 47.1548 71.8883 47.0149 73.2967 46.8761C71.1312 50.3449 68.0895 53.1779 64.2259 55.3132C63.7871 55.5558 63.6279 56.1081 63.8704 56.5469C64.113 56.9857 64.6652 57.145 65.1042 56.9023C69.6774 54.3749 73.1835 50.9268 75.5386 46.6455C77.3024 46.4559 78.7787 46.2784 79.8902 46.1374C79.4019 46.7174 78.0324 48.3342 78.0324 48.3342Z" fill="url(#grad0)"/>
   <path d="M75.9775 67.6686C74.3032 67.0906 73.3154 65.3172 72.9685 64.5815C72.7907 64.2047 72.4065 63.9612 71.9898 63.9612C71.5731 63.9612 71.189 64.2047 71.0111 64.5815C71.0111 64.5815 71.0111 64.5815 71.011 64.5817C70.6641 65.3173 69.6764 67.0906 68.0021 67.6686C67.5665 67.819 67.2739 68.2297 67.2739 68.6907C67.2739 69.1519 67.5665 69.5626 68.0021 69.7129C69.6764 70.2909 70.6642 72.0642 71.011 72.7998C71.1888 73.1768 71.573 73.4203 71.9898 73.4203C72.4066 73.4203 72.7908 73.1768 72.9686 72.7998C73.3155 72.0642 74.3032 70.2909 75.9775 69.713C76.4131 69.5626 76.7057 69.1519 76.7057 68.6907C76.7056 68.2297 76.413 67.819 75.9775 67.6686ZM71.9898 70.8443C71.5213 70.1305 70.849 69.3121 69.9517 68.6907C70.849 68.0694 71.5212 67.2509 71.9898 66.5372C72.4583 67.2509 73.1305 68.0694 74.0278 68.6907C73.1306 69.3121 72.4583 70.1305 71.9898 70.8443Z" fill="url(#grad1)"/>
   <path d="M28.0669 29.5059C30.4963 30.3445 31.913 32.8829 32.4093 33.9353C32.6008 34.3413 32.9986 34.5935 33.4476 34.5935C33.8966 34.5935 34.2944 34.3412 34.4858 33.9353C34.9821 32.8829 36.3989 30.3445 38.8281 29.5059C39.29 29.3466 39.6004 28.9109 39.6004 28.4218C39.6004 27.9327 39.29 27.497 38.8283 27.3378C36.3989 26.4992 34.9822 23.9608 34.4858 22.9084C34.2944 22.5024 33.8966 22.2502 33.4476 22.2502C32.9986 22.2502 32.6008 22.5025 32.4093 22.9084C31.9131 23.9608 30.4963 26.4992 28.067 27.3378C27.6052 27.4971 27.2949 27.9328 27.2949 28.4219C27.2949 28.911 27.6052 29.3466 28.0669 29.5059ZM33.4476 24.8119C34.1374 25.9635 35.265 27.4511 36.8858 28.4219C35.2651 29.3927 34.1376 30.8804 33.4476 32.032C32.7577 30.8804 31.6302 29.3927 30.0095 28.4219C31.6301 27.4511 32.7576 25.9635 33.4476 24.8119Z" fill="url(#grad2)"/>
   <path d="M68.4957 74.494C66.0664 73.6554 64.6497 71.1171 64.1533 70.0646C63.9619 69.6586 63.5641 69.4065 63.1151 69.4065C62.666 69.4065 62.2682 69.6587 62.0768 70.0646C61.5806 71.1171 60.1638 73.6554 57.7345 74.494C57.2726 74.6534 56.9624 75.0891 56.9624 75.5782C56.9624 76.0673 57.2726 76.5028 57.7344 76.6622C60.1638 77.5008 61.5804 80.0391 62.0768 81.0916C62.2682 81.4976 62.666 81.7497 63.1151 81.7497C63.5641 81.7497 63.9619 81.4975 64.1533 81.0916C64.6496 80.0391 66.0664 77.5008 68.4956 76.6622C68.9575 76.5028 69.2677 76.0671 69.2677 75.578C69.2677 75.0889 68.9575 74.6534 68.4957 74.494ZM63.1151 79.1881C62.4252 78.0365 61.2977 76.5488 59.6768 75.578C61.2976 74.6072 62.4251 73.1196 63.1151 71.968C63.8049 73.1196 64.9324 74.6072 66.5532 75.578C64.9326 76.5488 63.805 78.0365 63.1151 79.1881Z" fill="url(#grad3)"/>
</g>

<circle cx="52" cy="52" r="51" stroke="url(#grad4)" stroke-width="2"/>

<defs>
   <linearGradient id="grad0" x1="31.5" y1="27.9999" x2="69.9427" y2="67.6831" gradientUnits="userSpaceOnUse">
   <stop stop-color="#F9DCA4"/>
   <stop offset="1" stop-color="#C0A46E"/>
   </linearGradient>
   
   <linearGradient id="grad1" x1="68.8712" y1="62.4649" x2="77.94" y2="67.6904" gradientUnits="userSpaceOnUse">
   <stop stop-color="#F9DCA4"/>
   <stop offset="1" stop-color="#C0A46E"/>
   </linearGradient>
   
   <linearGradient id="grad2" x1="29.3789" y1="20.2978" x2="41.2118" y2="27.1148" gradientUnits="userSpaceOnUse">
   <stop stop-color="#F9DCA4"/>
   <stop offset="1" stop-color="#C0A46E"/>
   </linearGradient>
  
   <linearGradient id="grad3" x1="59.0464" y1="67.4541" x2="70.8792" y2="74.2709" gradientUnits="userSpaceOnUse">
   <stop stop-color="#F9DCA4"/>
   <stop offset="1" stop-color="#C0A46E"/>
   </linearGradient>
   
   <linearGradient id="grad4" x1="79.7931" y1="95.931" x2="20.6207" y2="10.3103" gradientUnits="userSpaceOnUse">
   <stop stop-color="#C0A46E"/>
   <stop offset="1" stop-color="#F9DCA4"/>
   </linearGradient>

   <clipPath id="clip0_147:733">
      <rect width="62" height="62" fill="white" transform="translate(21 21)"/>
   </clipPath>
</defs>
</svg>
