<svg width="104" height="105" viewBox="0 0 104 105" fill="none" xmlns="http://www.w3.org/2000/svg">
<g clip-path="url(#clip0_149)">
<path d="M74.9113 48.9849H74.7077C73.6358 40.5347 68.0267 33.3482 60.0899 30.2559C57.9382 28.5422 55.2687 27.609 52.5179 27.6094H49.7635C48.4705 27.6104 47.4216 26.563 47.4206 25.2701C47.4202 24.8445 47.536 24.4269 47.7552 24.0621C48.0447 23.5803 47.8888 22.9549 47.407 22.6653C47.2484 22.57 47.0669 22.5198 46.8819 22.52H46.4106C46.1482 22.5205 45.8863 22.5366 45.6258 22.5679C40.6086 22.9863 36.8804 27.3929 37.2989 32.4101C37.3249 32.7217 37.3669 33.0318 37.4247 33.3391C32.4161 37.1271 29.1298 42.7605 28.2974 48.9849H28.0887C24.7157 48.9849 21.9814 51.7192 21.9814 55.0922C21.9814 58.4652 24.7157 61.1995 28.0887 61.1995H28.1142C28.7169 74.1152 39.6757 84.0968 52.5913 83.4941C64.6633 82.9308 74.3226 73.2715 74.8858 61.1995H74.9113C78.2843 61.1995 81.0186 58.4652 81.0186 55.0922C81.0186 51.7192 78.2843 48.9849 74.9113 48.9849ZM28.0887 52.0386V59.1638C25.8401 59.1638 24.0172 57.3409 24.0172 55.0922C24.0172 52.8436 25.8401 51.0207 28.0887 51.0207H28.1193C28.104 51.3597 28.0887 51.6976 28.0887 52.0386ZM72.8755 60.1816C72.8755 71.987 63.3054 81.5572 51.5 81.5572C39.6946 81.5572 30.1245 71.987 30.1245 60.1816V52.0386C30.1403 45.5813 33.0617 39.4741 38.0792 35.4095C39.5526 38.699 42.8133 40.8233 46.4177 40.8419H49.4642V38.8061H46.4177C43.4506 38.797 40.7969 36.9579 39.7465 34.1829C39.0662 32.3981 39.1437 30.4127 39.9613 28.6863C39.9301 29.3579 40.0032 30.0302 40.1781 30.6794C40.9989 33.671 43.7156 35.7468 46.8178 35.7525H50.4821C53.2915 35.7558 55.5682 38.0325 55.5715 40.8419H57.6073C57.6028 36.9087 54.4154 33.7212 50.4821 33.7167H46.8178C44.6306 33.7157 42.7139 32.2533 42.1355 30.144C41.4925 27.7876 42.8815 25.356 45.238 24.713C45.2995 24.6963 45.3612 24.6809 45.4233 24.6667C45.2902 25.6192 45.4767 26.589 45.9536 27.4242C46.7228 28.8045 48.1832 29.6559 49.7635 29.6452H52.5179C58.137 29.6514 62.6906 34.2049 62.6967 39.824V40.8419H64.7325V39.824C64.7322 37.8867 64.2673 35.9777 63.3767 34.2572C69.3352 38.2066 72.9056 44.8901 72.8755 52.0386V60.1816ZM74.9113 59.1638V52.0386C74.9113 51.6966 74.8879 51.3597 74.8726 51.0207H74.9113C77.1599 51.0207 78.9828 52.8436 78.9828 55.0922C78.9828 57.3409 77.16 59.1638 74.9113 59.1638Z" fill="url(#paint0_linear_149)"/>
<path d="M38.2678 47.967C36.0192 47.967 34.1963 49.7899 34.1963 52.0386C34.1963 54.2872 36.0192 56.1101 38.2678 56.1101C40.5164 56.1101 42.3393 54.2872 42.3393 52.0386C42.3393 49.7899 40.5166 47.967 38.2678 47.967ZM38.2678 54.0743C37.1434 54.0743 36.2321 53.1629 36.2321 52.0386C36.2321 50.9142 37.1434 50.0028 38.2678 50.0028C39.3922 50.0028 40.3036 50.9142 40.3036 52.0386C40.3036 53.1629 39.3922 54.0743 38.2678 54.0743Z" fill="url(#paint1_linear_149)"/>
<path d="M64.7322 47.967C62.4835 47.967 60.6606 49.7899 60.6606 52.0386C60.6606 54.2872 62.4835 56.1101 64.7322 56.1101C66.9808 56.1101 68.8037 54.2872 68.8037 52.0386C68.8037 49.7899 66.9809 47.967 64.7322 47.967ZM64.7322 54.0743C63.6078 54.0743 62.6964 53.1629 62.6964 52.0386C62.6964 50.9142 63.6078 50.0028 64.7322 50.0028C65.8565 50.0028 66.7679 50.9142 66.7679 52.0386C66.7679 53.1629 65.8565 54.0743 64.7322 54.0743Z" fill="url(#paint2_linear_149)"/>
<path d="M61.6787 59.1638H41.3211C40.759 59.1638 40.3032 59.6196 40.3032 60.1817C40.3032 66.3655 45.3162 71.3784 51.4999 71.3784C57.6837 71.3784 62.6966 66.3655 62.6966 60.1817C62.6966 59.6196 62.241 59.1638 61.6787 59.1638ZM52.5178 61.1996H54.5536V63.2353H52.5178V61.1996ZM48.4463 61.1996H50.482V63.2353H48.4463V61.1996ZM50.4888 69.2933C46.23 68.8202 42.868 65.4583 42.3951 61.1996H46.4106V64.2532C46.4106 64.8154 46.8664 65.2711 47.4285 65.2711H55.5716C56.1337 65.2711 56.5895 64.8154 56.5895 64.2532V61.1996H60.605C60.0464 66.228 55.5173 69.8518 50.4888 69.2933Z" fill="url(#paint3_linear_149)"/>
</g>
<circle cx="52" cy="52.52" r="51" stroke="url(#paint4_linear_149)" stroke-width="2"/>
<defs>
<linearGradient id="paint0_linear_149" x1="31.9797" y1="12.8711" x2="89.5758" y2="45.0833" gradientUnits="userSpaceOnUse">
<stop stop-color="#F9DCA4"/>
<stop offset="1" stop-color="#C0A46E"/>
</linearGradient>
<linearGradient id="paint1_linear_149" x1="35.5754" y1="46.679" x2="43.3937" y2="51.197" gradientUnits="userSpaceOnUse">
<stop stop-color="#F9DCA4"/>
<stop offset="1" stop-color="#C0A46E"/>
</linearGradient>
<linearGradient id="paint2_linear_149" x1="62.0397" y1="46.679" x2="69.8581" y2="51.197" gradientUnits="userSpaceOnUse">
<stop stop-color="#F9DCA4"/>
<stop offset="1" stop-color="#C0A46E"/>
</linearGradient>
<linearGradient id="paint3_linear_149" x1="44.0956" y1="57.2317" x2="57.6088" y2="71.548" gradientUnits="userSpaceOnUse">
<stop stop-color="#F9DCA4"/>
<stop offset="1" stop-color="#C0A46E"/>
</linearGradient>
<linearGradient id="paint4_linear_149" x1="79.7931" y1="96.4511" x2="20.6207" y2="10.8304" gradientUnits="userSpaceOnUse">
<stop stop-color="#C0A46E"/>
<stop offset="1" stop-color="#F9DCA4"/>
</linearGradient>
<clipPath id="clip0_149">
<rect width="61" height="61" fill="white" transform="translate(21 22.52)"/>
</clipPath>
</defs>
</svg>
