<svg width="104" height="104" viewBox="0 0 104 104" fill="none" xmlns="http://www.w3.org/2000/svg">
<g clip-path="url(#clip0_147)">
<path d="M58.9601 26C57.9528 25.9989 56.9559 26.2207 56.0305 26.6517C53.4542 27.8417 50.5413 27.8417 47.9649 26.6517C44.1867 24.9018 39.8144 26.8012 38.1991 30.8943C37.8042 31.8949 37.6005 32.9718 37.6001 34.06C37.6037 37.4182 38.3197 40.7307 39.6929 43.7415L40.8329 47.9154C40.9344 48.2824 41.2464 48.5338 41.6001 48.5333H44.0001V52.8667C44.0001 53.3453 44.3583 53.7333 44.8001 53.7333H47.2001V55.7501L44.8881 55.4719L44.7121 57.1948L47.2001 57.4947V60.9501L44.8881 60.6719L44.7121 62.3948L47.2001 62.6947V66.1501L44.8881 65.8719L44.7121 67.5948L47.2001 67.8947V71.3501L44.8881 71.0719L44.7121 72.7948L47.2537 73.1007C47.2537 73.1077 47.2537 73.1146 47.2537 73.1215L48.8537 77.4549C48.9756 77.7854 49.2716 78.0015 49.6001 78H54.4001C54.7275 78.0001 55.0219 77.7842 55.1433 77.4549L56.3433 74.1953L59.1089 74.5281L59.2849 72.8052L56.8001 72.5053V69.0499L59.1121 69.3281L59.2881 67.6052L56.8001 67.3053V63.8499L59.1121 64.1281L59.2881 62.4052L56.8001 62.1053V58.6499L59.1121 58.9281L59.2881 57.2052L56.8001 56.9053V53.7333H59.2001C59.6419 53.7333 60.0001 53.3453 60.0001 52.8667V48.5333H62.4001C62.7545 48.5334 63.0667 48.2809 63.1673 47.9128L64.3073 43.7389C65.6801 40.7289 66.3962 37.4174 66.4001 34.06C66.397 29.61 63.0678 26.0034 58.9601 26ZM53.8561 76.2667H50.1417L49.0529 73.32L54.6969 73.9995L53.8561 76.2667ZM55.2001 72.3129L48.8001 71.5425V68.0871L55.2001 68.8575V72.3129ZM55.2001 67.1129L48.8001 66.3425V62.8871L55.2001 63.6575V67.1129ZM55.2001 61.9129L48.8001 61.1425V57.6871L55.2001 58.4575V61.9129ZM55.2001 56.7129L48.8001 55.9425V53.7333H55.2001V56.7129ZM58.4001 52H45.6001V48.5333H58.4001V52ZM62.8441 43.0326C62.8233 43.078 62.8062 43.1252 62.7929 43.1739L61.8025 46.8H42.1977L41.2073 43.1739C41.194 43.1252 41.1769 43.078 41.1561 43.0326C39.8732 40.2455 39.2037 37.1744 39.2001 34.06C39.2009 30.5659 41.8161 27.734 45.0415 27.7349C45.8306 27.7351 46.6114 27.9085 47.3369 28.2447C50.3156 29.6209 53.6838 29.6209 56.6625 28.2447C59.6277 26.87 63.0602 28.3597 64.3291 31.572C64.6397 32.3583 64.7999 33.2047 64.8001 34.06C64.7965 37.1744 64.127 40.2455 62.8441 43.0326Z" fill="url(#paint0_linear_147)"/>
<path d="M43.5998 29.5811C41.913 30.5492 40.8418 32.4302 40.7998 34.4977V35.5333H42.3998V34.4933C42.4474 33.0477 43.2123 31.7427 44.3998 31.0813L43.5998 29.5811Z" fill="url(#paint1_linear_147)"/>
</g>
<circle cx="52" cy="52" r="51" stroke="url(#paint2_linear_147)" stroke-width="2"/>
<defs>
<linearGradient id="paint0_linear_147" x1="42.4775" y1="17.7747" x2="75.9358" y2="28.4831" gradientUnits="userSpaceOnUse">
<stop stop-color="#F9DCA4"/>
<stop offset="1" stop-color="#C0A46E"/>
</linearGradient>
<linearGradient id="paint1_linear_147" x1="41.4095" y1="28.6395" x2="45.5183" y2="30.0756" gradientUnits="userSpaceOnUse">
<stop stop-color="#F9DCA4"/>
<stop offset="1" stop-color="#C0A46E"/>
</linearGradient>
<linearGradient id="paint2_linear_147" x1="79.7931" y1="95.931" x2="20.6207" y2="10.3103" gradientUnits="userSpaceOnUse">
<stop stop-color="#C0A46E"/>
<stop offset="1" stop-color="#F9DCA4"/>
</linearGradient>
<clipPath id="clip0_147">
<rect width="48" height="52" fill="white" transform="translate(28 26)"/>
</clipPath>
</defs>
</svg>
